<?xml version="1.0" encoding="UTF-8" standalone="no"?>
<svg
   width="1254"
   height="1254"
   viewBox="0 0 1254 1254"
   version="1.1"
   id="svg26"
   xmlns="http://www.w3.org/2000/svg"
   xmlns:svg="http://www.w3.org/2000/svg">
  <defs
     id="defs12">
    <linearGradient
       id="purpleMain"
       x1="0%"
       y1="100%"
       x2="70%"
       y2="0%">
      <stop
         offset="0%"
         stop-color="#241045"
         id="stop1" />
      <stop
         offset="35%"
         stop-color="#5420a7"
         id="stop2" />
      <stop
         offset="70%"
         stop-color="#7d35ef"
         id="stop3" />
      <stop
         offset="100%"
         stop-color="#b57cff"
         id="stop4" />
    </linearGradient>
    <linearGradient
       id="purpleEdge"
       x1="0%"
       y1="100%"
       x2="100%"
       y2="0%">
      <stop
         offset="0%"
         stop-color="#33126a"
         id="stop5" />
      <stop
         offset="50%"
         stop-color="#8b3fff"
         id="stop6" />
      <stop
         offset="100%"
         stop-color="#edd8ff"
         id="stop7" />
    </linearGradient>
    <linearGradient
       id="silver"
       x1="0%"
       y1="0%"
       x2="0%"
       y2="100%">
      <stop
         offset="0%"
         stop-color="#ffffff"
         id="stop8" />
      <stop
         offset="40%"
         stop-color="#ececf0"
         id="stop9" />
      <stop
         offset="70%"
         stop-color="#c4c4c9"
         id="stop10" />
      <stop
         offset="100%"
         stop-color="#ffffff"
         id="stop11" />
    </linearGradient>
    <filter
       id="shadow"
       x="-0.0012376238"
       y="-0.023807125"
       width="1.0024752"
       height="1.0452594">
      <feDropShadow
         dx="0"
         dy="8"
         stdDeviation="8"
         flood-color="#000000"
         flood-opacity="0.45" />
    </filter>
    <filter
       id="glow"
       x="-0.13368367"
       y="-0.023807126"
       width="1.2673673"
       height="1.0452593">
      <feGaussianBlur
         stdDeviation="5"
         result="blur"
         id="feGaussianBlur11" />
      <feFlood
         flood-color="#8b3fff"
         flood-opacity="0.75"
         id="feFlood11" />
      <feComposite
         in2="blur"
         operator="in"
         id="feComposite11" />
      <feMerge
         id="feMerge12">
        <feMergeNode
           id="feMergeNode11" />
        <feMergeNode
           in="SourceGraphic"
           id="feMergeNode12" />
      </feMerge>
    </filter>
  </defs>
  <rect
     x="0"
     y="0"
     width="1254"
     height="1254"
     fill="#000000"
     id="rect12" />
  <g
     id="icon"
     filter="url(#shadow)">
    <!-- Side channel bases -->
    <path
       d="M240 716 C390 716 486 687 503 607 L503 446 L531 418 L531 614            C510 715 397 752 240 752 Z"
       fill="url(#purpleMain)"
       stroke="url(#purpleEdge)"
       stroke-width="2"
       id="path12" />
    <path
       d="M286 645 C410 645 512 630 548 564 L548 336 L585 300 L585 577            C542 674 425 690 286 680 Z"
       fill="url(#purpleMain)"
       stroke="url(#purpleEdge)"
       stroke-width="2"
       id="path13" />
    <path
       d="M1014 716 C864 716 768 687 751 607 L751 446 L723 418 L723 614            C744 715 857 752 1014 752 Z"
       fill="url(#purpleMain)"
       stroke="url(#purpleEdge)"
       stroke-width="2"
       id="path14" />
    <path
       d="M968 645 C844 645 742 630 706 564 L706 336 L669 300 L669 577            C712 674 829 690 968 680 Z"
       fill="url(#purpleMain)"
       stroke="url(#purpleEdge)"
       stroke-width="2"
       id="path15" />
    <!-- Center arrow -->
    <g
       filter="url(#glow)"
       id="g16">
      <path
         d="M601 770 C614 710 615 650 615 588 L615 264 L575 279              L627 164 L679 279 L639 264 L639 588 C639 650 640 710 653 770              L635 770 C628 723 626 681 627 638 C628 681 626 723 619 770 Z"
         fill="url(#purpleMain)"
         stroke="#f0e3ff"
         stroke-width="2"
         id="path16" />
    </g>
    <!-- Highlight lines -->
    <path
       d="M248 707 C395 707 476 682 493 604"
       fill="none"
       stroke="#d9b7ff"
       stroke-width="3"
       opacity="0.7"
       id="path17" />
    <path
       d="M293 637 C420 637 504 622 537 560"
       fill="none"
       stroke="#d9b7ff"
       stroke-width="3"
       opacity="0.7"
       id="path18" />
    <path
       d="M1006 707 C859 707 778 682 761 604"
       fill="none"
       stroke="#d9b7ff"
       stroke-width="3"
       opacity="0.7"
       id="path19" />
    <path
       d="M961 637 C834 637 750 622 717 560"
       fill="none"
       stroke="#d9b7ff"
       stroke-width="3"
       opacity="0.7"
       id="path20" />
    <path
       d="M627 181 L627 734"
       fill="none"
       stroke="#f4ebff"
       stroke-width="3"
       opacity="0.75"
       id="path21" />
    <!-- Nodes -->
    <circle
       cx="240"
       cy="734"
       r="17"
       fill="url(#purpleMain)"
       stroke="#d9b7ff"
       stroke-width="2"
       id="circle21" />
    <circle
       cx="286"
       cy="662"
       r="17"
       fill="url(#purpleMain)"
       stroke="#d9b7ff"
       stroke-width="2"
       id="circle22" />
    <circle
       cx="1014"
       cy="734"
       r="17"
       fill="url(#purpleMain)"
       stroke="#d9b7ff"
       stroke-width="2"
       id="circle23" />
    <circle
       cx="968"
       cy="662"
       r="17"
       fill="url(#purpleMain)"
       stroke="#d9b7ff"
       stroke-width="2"
       id="circle24" />
  </g>
  <g
     id="wordmark">
    <path
       d="m 345.57007,905 h 67.11914 v -17.9126 h -45.5249 v -87.58056 h -21.59424 z m 107.9873,0 h 70.72998 v -17.9126 h -49.13574 v -26.55029 h 45.3125 v -17.6294 h -45.3125 v -25.48828 h 48.99414 v -17.91259 h -70.58838 z m 107.98731,0 h 23.85986 l 7.85889,-24.49707 h 37.45361 L 638.85913,905 H 662.8606 L 625.90259,799.50684 h -28.32031 z m 37.09961,-41.41846 3.04443,-9.4873 c 3.18604,-10.62012 6.30127,-23.15186 9.84131,-37.66602 3.68164,14.37256 7.00928,26.8335 10.40771,37.66602 l 3.18604,9.4873 z M 738.98755,905 c 32.07275,0 51.40137,-19.82422 51.40137,-52.81738 0,-32.85157 -19.32862,-52.67578 -51.04737,-52.67578 H 701.88794 V 905 Z m -15.50537,-18.62061 v -68.25195 h 14.58496 c 20.17822,0 30.79834,10.47852 30.79834,34.05518 0,23.71826 -10.62012,34.19677 -30.93994,34.19677 z m 147.77734,20.17823 c 25.62988,0 40.71045,-12.39014 40.71045,-31.57715 0,-17.7002 -13.73535,-26.7627 -31.50635,-30.86914 l -9.5581,-2.33643 c -8.9209,-2.12402 -16.85059,-5.45166 -16.85059,-13.31054 0,-7.08008 6.23047,-12.17774 17.27539,-12.17774 10.83252,0 17.5586,4.88525 18.3374,13.31055 h 20.88624 c -0.35401,-18.54981 -15.64698,-31.50635 -39.01124,-31.50635 -22.93945,0 -39.64843,12.74414 -39.64843,31.78955 0,15.36377 10.69092,24.35547 28.53271,28.67432 l 11.61133,2.90283 c 11.46973,2.83203 18.1958,6.15967 18.1958,13.38135 0,8.00049 -7.64648,13.45215 -19.18701,13.45215 -11.68213,0 -20.24902,-5.31006 -20.95703,-16.00098 h -21.02783 c 0.6372,22.44385 16.85058,34.26758 42.19726,34.26758 z"
       id="text24"
       style="font-weight:700;font-size:145px;font-family:Inter, Arial, sans-serif;letter-spacing:26;text-anchor:middle;fill:url(#silver);stroke:#ffffff;stroke-opacity:0.12"
       aria-label="LEADS" />
    <line
       x1="205"
       y1="971"
       x2="460"
       y2="971"
       stroke="#8b3fff"
       stroke-width="3"
       id="line24" />
    <line
       x1="794"
       y1="971"
       x2="1049"
       y2="971"
       stroke="#8b3fff"
       stroke-width="3"
       id="line25" />
    <path
       d="m 537.28564,991 h 18.19434 c 10.32324,0 15.37891,-5.26758 15.37891,-12.29102 0,-6.81152 -4.84375,-10.80761 -9.62696,-11.0498 v -0.4541 c 4.38965,-1.0293 7.8711,-4.11719 7.8711,-9.59668 0,-6.69043 -4.81348,-11.71582 -14.56153,-11.71582 h -17.25586 z m 8.08301,-6.75098 v -13.29004 h 9.11231 c 5.02539,0 8.17383,3.11817 8.17383,7.14454 0,3.57226 -2.48243,6.1455 -8.44629,6.1455 z m 0,-19.13281 v -12.50293 h 8.3252 c 4.84375,0 7.32617,2.54297 7.32617,6.02442 0,3.99609 -3.23926,6.47851 -7.50781,6.47851 z M 608.15479,991 h 8.083 v -15.25781 h 8.65821 c 10.41406,0 16.01464,-6.2666 16.01464,-14.92481 0,-8.59765 -5.50976,-14.9248 -15.89355,-14.9248 h -16.8623 z m 8.083,-21.91797 v -16.4082 h 7.53809 c 6.17578,0 8.87012,3.33008 8.87012,8.14355 0,4.81348 -2.69434,8.26465 -8.80957,8.26465 z m 81.22266,22.52344 c 11.80664,0 20.67676,-8.56738 20.67676,-23.12891 0,-14.59179 -8.87012,-23.18945 -20.67676,-23.18945 -11.83691,0 -20.73731,8.59766 -20.73731,23.18945 0,14.53125 8.9004,23.12891 20.73731,23.12891 z m 0,-7.23535 c -7.38672,0 -12.62402,-5.63086 -12.62402,-15.89356 0,-10.32324 5.2373,-15.9541 12.62402,-15.9541 7.32617,0 12.5332,5.60059 12.5332,15.9541 0,10.29297 -5.20703,15.89356 -12.5332,15.89356 z"
       id="text25"
       style="font-weight:600;font-size:62px;font-family:Inter, Arial, sans-serif;letter-spacing:30;text-anchor:middle;fill:#8b3fff"
       aria-label="BPO" />
    <path
       d="m 352.92773,1070 h 4.33594 l 4.98047,-18.4375 c 0.56641,-2.1094 0.99609,-4.082 1.42578,-6.4648 0.44922,2.5586 0.91797,4.6093 1.42578,6.4648 l 5,18.4375 h 4.31641 l 7.96875,-29.1016 h -3.82813 l -4.58984,17.8516 c -0.625,2.4609 -1.21094,4.9805 -1.71875,7.6758 -0.54687,-2.6953 -1.13281,-5.2149 -1.77734,-7.6758 l -4.66797,-17.8516 h -4.21875 l -4.70703,17.8516 c -0.66407,2.5 -1.23047,5.0586 -1.75782,7.793 -0.52734,-2.7344 -1.09375,-5.293 -1.71875,-7.793 l -4.60937,-17.8516 h -3.78906 z m 45.70313,0.4688 c 4.47266,0 7.73437,-2.2461 8.75,-5.5469 l -3.39844,-0.9375 c -0.82031,2.2265 -2.7539,3.3594 -5.33203,3.3594 -3.86719,0 -6.52344,-2.5 -6.69922,-7.0704 h 15.78125 v -1.4648 c 0,-8.0664 -4.88281,-10.918 -9.51172,-10.918 -5.95703,0 -9.82422,4.668 -9.82422,11.3672 0,6.7188 3.90625,11.211 10.23438,11.211 z m -6.66016,-13.1641 c 0.21485,-3.3399 2.5,-6.2891 6.25,-6.2891 3.59375,0 5.60547,2.5782 5.9375,6.2891 z M 434.45117,1070 h 17.1875 v -3.2812 h -13.47656 v -25.8204 h -3.71094 z m 36.36719,0.4688 c 4.47266,0 7.73437,-2.2461 8.75,-5.5469 l -3.39844,-0.9375 c -0.82031,2.2265 -2.7539,3.3594 -5.33203,3.3594 -3.86719,0 -6.52344,-2.5 -6.69922,-7.0704 h 15.78125 v -1.4648 c 0,-8.0664 -4.88281,-10.918 -9.51172,-10.918 -5.95703,0 -9.82422,4.668 -9.82422,11.3672 0,6.7188 3.90625,11.211 10.23438,11.211 z m -6.66016,-13.1641 c 0.21485,-3.3399 2.5,-6.2891 6.25,-6.2891 3.59375,0 5.60547,2.5782 5.9375,6.2891 z m 32.30469,13.2031 c 3.69141,0 5.74219,-1.9336 6.48438,-3.4765 h 0.23437 V 1070 h 3.45703 v -14.3945 c 0,-6.8164 -5.2539,-7.7149 -8.18359,-7.7149 -3.37891,0 -7.12891,1.211 -8.8086,5.1758 l 3.37891,1.1133 c 0.68359,-1.5234 2.38281,-3.2031 5.52734,-3.2031 3.02735,0 4.57032,1.5625 4.57032,4.2773 v 0.1172 c 0,1.6211 -1.71875,1.5039 -5.60547,1.9922 -4.04297,0.5078 -8.4961,1.4258 -8.4961,6.4258 0,4.2968 3.30079,6.7187 7.44141,6.7187 z m 0.60547,-3.1055 c -2.61719,0 -4.51172,-1.1718 -4.51172,-3.4375 0,-2.4804 2.24609,-3.3007 4.80469,-3.6328 1.34765,-0.1757 5.17578,-0.5664 5.76172,-1.25 v 3.0274 c 0,2.6758 -2.16797,5.2929 -6.05469,5.2929 z m 28.92578,3.0665 c 4.16016,0 5.625,-2.6368 6.34766,-3.8477 h 0.39062 V 1070 h 3.39844 v -29.1016 h -3.51563 v 10.7618 h -0.27343 c -0.72266,-1.1524 -2.07032,-3.7696 -6.32813,-3.7696 -5.44922,0 -9.25781,4.336 -9.25781,11.25 0,6.9532 3.78906,11.3282 9.23828,11.3282 z m 0.52734,-3.1446 c -4.08203,0 -6.1914,-3.6328 -6.1914,-8.2226 0,-4.5313 2.05078,-8.0664 6.1914,-8.0664 4.02344,0 6.13282,3.2421 6.13282,8.0664 0,4.8632 -2.16797,8.2226 -6.13282,8.2226 z m 20.19532,9.6875 h 2.69531 l 3.04687,-11.0742 h -4.02343 z m 45.58593,-6.6211 c 7.46094,0 12.89063,-5.7031 12.89063,-14.9218 0,-9.2383 -5.42969,-14.961 -12.89063,-14.961 -7.46093,0 -12.92968,5.7227 -12.92968,14.961 0,9.2187 5.46875,14.9218 12.92968,14.9218 z m 0,-3.4375 c -5.23437,0 -9.3164,-4.0625 -9.3164,-11.4843 0,-7.461 4.08203,-11.5235 9.3164,-11.5235 5.19532,0 9.27735,4.043 9.27735,11.5235 0,7.4414 -4.08203,11.4843 -9.27735,11.4843 z m 31.95313,-18.789 h -4.49219 v -5.1953 h -3.51562 v 5.1953 h -3.28125 v 3.0078 h 3.28125 v 13.4375 c 0,3.5742 2.22656,5.664 5.99609,5.664 0.89844,0 1.89453,-0.1367 2.61719,-0.3906 l -0.72266,-2.9687 c -0.58594,0.1172 -1.34765,0.2343 -1.79687,0.2343 -1.85547,0 -2.57813,-0.8593 -2.57813,-2.8125 v -13.164 h 4.49219 z m 13.00781,8.75 c 0,-3.7305 2.36328,-5.8594 5.50781,-5.8594 3.04688,0 4.92188,2.0117 4.92188,5.3711 V 1070 h 3.53516 v -13.8672 c 0,-5.5273 -2.98829,-8.2422 -7.40235,-8.2422 -2.85156,0 -5.13672,1.1524 -6.5625,4.0625 v -11.0547 h -3.51562 V 1070 h 3.51562 z m 34.31641,13.5547 c 4.47265,0 7.73437,-2.2461 8.75,-5.5469 l -3.39844,-0.9375 c -0.82031,2.2265 -2.75391,3.3594 -5.33203,3.3594 -3.86719,0 -6.52344,-2.5 -6.69922,-7.0704 h 15.78125 v -1.4648 c 0,-8.0664 -4.88281,-10.918 -9.51172,-10.918 -5.95703,0 -9.82422,4.668 -9.82422,11.3672 0,6.7188 3.90625,11.211 10.23438,11.211 z m -6.66016,-13.1641 c 0.21485,-3.3399 2.5,-6.2891 6.25,-6.2891 3.59375,0 5.60547,2.5782 5.9375,6.2891 z M 690.7207,1070 h 3.51563 v -13.6719 c 0,-2.9492 2.30469,-5.0781 5.44922,-5.0781 0.9375,0 1.89453,0.1563 2.10937,0.1953 v -3.5351 c -0.41015,-0.02 -1.26953,-0.059 -1.77734,-0.059 -2.59766,0 -4.86328,1.4648 -5.66406,3.6718 h -0.23438 v -3.3593 h -3.39844 z m 27.48047,0.4688 c 5.11719,0 8.61328,-2.793 8.61328,-6.6211 0,-2.9883 -1.85547,-4.961 -5.82031,-5.8985 l -3.30078,-0.7812 c -2.55859,-0.6055 -3.67188,-1.5039 -3.67188,-3.125 0,-1.8164 1.95313,-3.1641 4.55079,-3.1641 2.8125,0 4.04296,1.5234 4.64843,3.0859 l 3.1836,-0.8203 c -0.9961,-3.0664 -3.35938,-5.2539 -7.85157,-5.2539 -4.64843,0 -8.08593,2.6172 -8.08593,6.3672 0,3.0664 1.89453,5.0195 5.85937,5.957 l 3.63281,0.8594 c 2.14844,0.5078 3.20313,1.5039 3.20313,3.0078 0,1.7969 -1.95313,3.3008 -5,3.3008 -2.61719,0 -4.39453,-1.0742 -5.01953,-3.4765 l -3.33985,0.8007 c 0.78125,3.7696 3.90625,5.7618 8.39844,5.7618 z M 753.57227,1070 h 3.71093 v -12.5781 h 12.5586 v -3.2813 h -12.5586 v -9.9609 h 13.88672 v -3.2813 h -17.59765 z m 35.48828,0.4688 c 5.95703,0 9.98047,-4.5118 9.98047,-11.25 0,-6.836 -4.02344,-11.3282 -9.98047,-11.3282 -5.9375,0 -9.94141,4.4922 -9.94141,11.3282 0,6.7382 4.00391,11.25 9.94141,11.25 z m 0,-3.1446 c -4.35547,0 -6.36719,-3.8086 -6.36719,-8.1054 0,-4.3555 2.01172,-8.1836 6.36719,-8.1836 4.41406,0 6.42578,3.8476 6.42578,8.1836 0,4.2968 -2.01172,8.1054 -6.42578,8.1054 z m 23.61328,-26.4258 H 809.1582 V 1070 h 3.51563 z m 14.6875,0 H 823.8457 V 1070 h 3.51563 z m 20.05859,29.5704 c 5.95703,0 9.98047,-4.5118 9.98047,-11.25 0,-6.836 -4.02344,-11.3282 -9.98047,-11.3282 -5.9375,0 -9.9414,4.4922 -9.9414,11.3282 0,6.7382 4.0039,11.25 9.9414,11.25 z m 0,-3.1446 c -4.35547,0 -6.36719,-3.8086 -6.36719,-8.1054 0,-4.3555 2.01172,-8.1836 6.36719,-8.1836 4.41406,0 6.42578,3.8476 6.42578,8.1836 0,4.2968 -2.01172,8.1054 -6.42578,8.1054 z M 871.69727,1070 h 3.49609 l 2.83203,-9.8828 c 0.70313,-2.4414 1.38672,-5.1758 2.05078,-7.9492 0.66406,2.7929 1.32813,5.4492 2.05078,7.9492 l 2.83203,9.8828 h 3.4961 l 6.62109,-21.8359 h -3.73047 l -2.65625,9.5312 c -0.66406,2.3828 -1.38672,5.1367 -2.10937,8.4766 -0.6836,-3.3789 -1.38672,-6.1524 -2.01172,-8.4766 l -2.57813,-9.5312 h -3.75 l -2.61718,9.5312 c -0.66407,2.4219 -1.36719,5.2149 -2.07032,8.5352 -0.72265,-3.4766 -1.46484,-6.25 -2.08984,-8.5352 l -2.65625,-9.5312 h -3.73047 z m 32.55859,0.2539 c 1.46484,0 2.63672,-1.1719 2.63672,-2.6367 0,-1.4649 -1.17188,-2.6367 -2.63672,-2.6367 -1.46484,0 -2.63672,1.1718 -2.63672,2.6367 0,1.4648 1.17188,2.6367 2.63672,2.6367 z"
       id="text26"
       style="font-size:40px;font-family:Inter, Arial, sans-serif;letter-spacing:5;text-anchor:middle;fill:#d8d8de"
       aria-label="We Lead, Others Follow." />
  </g>
</svg>
