<?xml version="1.0" standalone="no"?>
<!DOCTYPE svg PUBLIC "-//W3C//DTD SVG 20010904//EN"
 "http://www.w3.org/TR/2001/REC-SVG-20010904/DTD/svg10.dtd">
<svg version="1.0" xmlns="http://www.w3.org/2000/svg"
 width="600.000000pt" height="600.000000pt" viewBox="0 0 600.000000 600.000000"
 preserveAspectRatio="xMidYMid meet">
<g transform="translate(0.000000,600.000000) scale(0.100000,-0.100000)">
<g fill="#915EFF" stroke="#915EFF" stroke-width="150" stroke-linejoin="round">
<path d="M2995 5269 c-16 -28 -29 -55 -27 -60 1 -5 -2 -9 -8 -9 -5 0 -9 -6 -7
-12 1 -7 -3 -12 -9 -11 -6 1 -11 -3 -11 -10 0 -7 -38 -66 -84 -132 -109 -156
-121 -175 -110 -175 5 0 13 5 16 10 4 6 11 7 17 4 7 -4 8 -2 4 4 -4 7 -2 12 4
12 6 0 8 5 5 10 -9 15 28 57 45 52 13 -5 13 -3 0 13 -8 10 -10 16 -3 12 8 -5
15 1 19 18 3 13 10 22 15 19 5 -3 6 3 2 12 -5 13 -3 15 7 9 8 -5 11 -4 7 2 -8
13 17 36 28 25 5 -4 6 -2 3 3 -3 6 3 26 13 45 17 30 25 33 20 7 -1 -5 3 -6 9
-2 8 5 8 11 0 20 -7 9 -6 16 5 25 8 7 15 19 15 26 0 8 4 14 9 14 5 0 12 7 15
16 3 8 2 12 -4 9 -6 -3 -10 -4 -10 0 0 10 45 75 52 75 4 0 7 -259 8 -575 0
-317 5 -698 10 -848 10 -281 13 -544 8 -657 -1 -36 -5 45 -8 180 l-6 245 -2
-240 c-3 -402 18 -549 108 -730 60 -123 149 -241 272 -363 l94 -93 108 -2 c99
-2 105 -1 84 13 -112 73 -334 291 -408 400 -110 162 -156 319 -171 590 -6 102
-13 187 -15 189 -2 2 -5 -43 -5 -100 -1 -57 -3 -128 -4 -158 -2 -34 0 -49 5
-41 6 10 9 -2 10 -35 2 -83 5 -115 10 -115 3 0 6 -8 7 -17 2 -30 34 -137 45
-150 5 -7 6 -18 2 -25 -4 -7 -4 -10 1 -6 11 11 35 -39 28 -58 -3 -8 -2 -14 3
-12 5 2 11 -1 12 -7 10 -28 24 -45 32 -40 6 4 7 -1 3 -11 -4 -11 -3 -15 5 -10
13 8 26 -29 16 -45 -4 -7 -3 -9 3 -6 11 7 34 -13 73 -62 14 -18 50 -57 80 -88
30 -31 54 -60 52 -65 -1 -4 4 -8 12 -8 8 0 18 -5 22 -12 4 -7 3 -8 -4 -4 -7 4
-12 2 -12 -4 0 -6 8 -9 18 -6 11 4 32 -8 60 -34 24 -22 50 -40 59 -40 13 0 14
-3 5 -12 -8 -8 -15 -8 -25 0 -10 9 -17 8 -27 -1 -10 -9 -11 -9 -6 1 8 14 -10
17 -19 2 -10 -16 -24 -12 -50 15 -25 25 -34 52 -13 39 7 -4 8 -3 4 5 -11 16
-28 2 -22 -18 3 -9 -10 1 -29 23 -19 21 -32 43 -28 49 3 6 1 7 -5 3 -13 -8
-44 22 -37 35 4 5 -1 6 -9 3 -9 -3 -16 -1 -16 4 0 6 -22 32 -49 57 -33 31 -48
52 -44 63 4 10 2 13 -5 8 -7 -4 -12 -1 -12 8 0 9 -5 16 -11 16 -6 0 -8 9 -4
23 4 14 3 18 -3 9 -11 -17 -26 0 -36 41 -4 17 -11 25 -18 21 -7 -5 -8 -3 -3 5
4 8 -1 24 -12 39 -24 34 -42 80 -45 114 -1 15 -6 24 -10 22 -4 -3 -9 5 -9 18
-3 44 -5 53 -17 81 -15 35 -15 40 -1 31 8 -4 8 0 0 15 -6 11 -12 50 -13 85 -1
37 -6 62 -12 59 -5 -3 -6 -1 -2 5 11 19 24 112 14 106 -15 -10 -8 29 10 49 9
11 11 17 5 13 -15 -9 -16 -3 -17 91 -1 40 2 73 7 73 4 0 7 7 7 15 0 8 -4 15
-10 15 -5 0 -8 26 -7 59 1 36 6 57 12 53 6 -3 5 1 -2 9 -8 10 -12 80 -13 234
0 121 0 227 1 235 0 8 -3 50 -7 93 -5 55 -4 77 5 77 13 0 15 76 2 84 -8 6 -8
109 1 156 3 14 3 19 1 13 -3 -7 -8 -13 -13 -13 -12 0 -10 73 2 87 6 7 8 23 5
35 -9 35 -10 490 -1 512 5 14 4 17 -4 12 -9 -5 -12 6 -12 38 0 25 4 47 9 51
10 5 51 -45 51 -63 0 -5 7 -15 15 -22 8 -7 12 -17 8 -23 -3 -6 -1 -7 5 -3 13
8 16 -14 5 -29 -5 -6 -4 -7 1 -2 17 13 25 8 42 -28 9 -19 21 -35 26 -35 6 0 5
-6 -2 -14 -9 -11 -9 -19 0 -33 10 -16 10 -15 5 5 -4 12 -3 22 2 22 8 0 22 -20
63 -88 9 -14 26 -32 40 -41 17 -11 3 16 -46 89 -38 58 -107 161 -152 228 -45
68 -82 128 -82 133 0 21 -17 5 -45 -42z m72 -1001 c-2 -13 -4 -5 -4 17 -1 22
1 32 4 23 2 -10 2 -28 0 -40z"/>
<path d="M3004 5140 c3 -40 16 -51 16 -12 0 17 -4 33 -9 36 -5 3 -8 -7 -7 -24z"/>
<path d="M3009 4925 c-4 -88 -7 -212 -6 -275 0 -63 0 -151 -1 -195 0 -74 0
-107 0 -145 1 -76 -6 -199 -13 -216 -4 -12 -3 -26 2 -31 5 -5 5 -22 0 -41 -6
-20 -6 -30 0 -27 5 4 9 -1 9 -10 0 -9 -4 -14 -9 -11 -5 3 -12 -1 -15 -10 -3
-8 -2 -13 3 -10 13 9 20 -18 15 -56 -3 -18 -7 -226 -8 -463 -2 -408 -9 -535
-26 -535 -5 0 -6 -10 -2 -22 3 -13 1 -19 -5 -15 -7 5 -10 -6 -9 -27 1 -19 -2
-32 -5 -30 -4 2 -5 -6 -1 -18 4 -16 2 -19 -8 -13 -8 5 -11 4 -7 -3 9 -13 -2
-42 -15 -42 -6 0 -17 8 -25 18 -9 10 -12 11 -7 2 4 -8 14 -23 22 -32 11 -13
12 -18 2 -18 -7 0 -10 -7 -6 -16 3 -8 2 -13 -2 -10 -4 2 -18 -17 -31 -44 -13
-27 -27 -47 -32 -44 -5 3 -9 -4 -9 -16 0 -11 -7 -23 -15 -26 -8 -4 -15 -12
-15 -20 0 -7 -9 -19 -20 -27 -11 -8 -17 -17 -12 -21 4 -5 -2 -6 -13 -4 -15 2
-19 -2 -18 -18 1 -13 -18 -40 -57 -78 -33 -31 -60 -61 -60 -66 0 -5 -9 -12
-21 -15 -11 -4 -18 -9 -15 -12 8 -8 -45 -48 -64 -48 -8 0 -26 6 -40 14 -22 12
-23 11 -8 -2 16 -13 15 -14 -12 -13 -16 1 -30 4 -30 7 0 4 25 26 55 49 36 27
61 40 71 36 14 -5 15 -4 4 9 -9 11 -9 15 -1 15 7 0 9 5 6 10 -3 6 -2 10 3 10
5 0 19 9 32 20 12 11 28 17 34 13 6 -3 8 -3 4 2 -4 4 5 23 21 40 16 18 31 39
33 47 4 11 8 10 24 -2 18 -14 18 -14 5 3 -13 16 -13 20 0 28 8 5 11 9 6 9 -6
0 23 37 60 75 7 7 22 31 34 54 11 22 25 41 30 41 5 0 9 9 9 21 0 11 4 18 9 14
6 -3 9 3 9 12 -1 27 45 146 62 161 13 12 13 13 -1 9 -13 -4 -15 -1 -12 14 3
10 12 19 19 19 8 0 14 5 14 11 0 5 -5 7 -11 3 -7 -4 -9 0 -6 12 13 46 20 137
18 234 -1 58 -5 260 -10 450 l-8 345 -2 -440 c-2 -242 -4 -451 -6 -465 -2 -14
-6 -49 -9 -77 -18 -182 -128 -388 -305 -571 -75 -78 -203 -192 -250 -223 -22
-14 -17 -15 78 -12 l103 3 46 40 c138 120 288 318 347 459 62 147 73 227 86
616 17 506 19 647 8 580 -5 -33 -13 -217 -18 -410 l-8 -350 0 300 c0 165 4
390 9 500 4 110 7 409 5 665 -1 328 -4 418 -8 305z m-264 -2465 c3 -5 1 -10
-4 -10 -6 0 -11 5 -11 10 0 6 2 10 4 10 3 0 8 -4 11 -10z"/>
<path d="M3156 5053 c-6 -14 -5 -15 5 -6 7 7 10 15 7 18 -3 3 -9 -2 -12 -12z"/>
<path d="M2865 4989 c-4 -6 -5 -12 -2 -15 2 -3 7 2 10 11 7 17 1 20 -8 4z"/>
<path d="M3256 4891 c-3 -5 1 -12 10 -15 22 -8 25 -4 9 11 -8 7 -16 9 -19 4z"/>
<path d="M2867 4858 c-3 -18 -6 -368 -6 -778 -1 -410 -5 -772 -10 -805 -39
-268 -197 -460 -598 -726 -158 -104 -500 -291 -593 -324 -29 -10 0 -11 170 -7
l205 4 60 36 c269 159 520 369 659 551 55 72 136 222 136 252 0 8 -20 -28 -45
-78 -24 -51 -47 -93 -50 -93 -4 0 -5 7 -2 15 4 8 2 17 -4 20 -5 4 -9 3 -8 -2
4 -22 -3 -25 -17 -7 -8 10 -13 14 -9 7 8 -16 -21 -82 -45 -103 -11 -10 -20
-23 -20 -30 0 -10 -3 -10 -15 0 -13 11 -18 11 -28 0 -9 -10 -9 -11 1 -6 22 13
34 -5 16 -25 -9 -10 -20 -16 -25 -14 -4 3 -10 -4 -14 -15 -3 -11 -10 -20 -15
-20 -5 0 -14 -10 -21 -22 -8 -17 -3 -14 19 10 17 17 35 32 40 32 4 0 21 18 38
40 28 38 44 50 44 31 0 -4 -55 -62 -122 -127 -114 -111 -369 -314 -393 -314
-5 1 4 12 20 26 28 24 17 24 -14 0 -21 -16 -43 -16 -37 0 3 9 1 12 -5 9 -5 -4
-7 -15 -4 -26 5 -13 2 -19 -9 -19 -9 0 -24 -9 -33 -19 -9 -11 -23 -17 -32 -14
-9 3 -12 1 -6 -4 19 -15 14 -28 -20 -50 -28 -19 -32 -19 -31 -5 0 9 -6 17 -14
17 -8 0 -14 -7 -14 -16 1 -12 -11 -16 -53 -18 -43 -2 -53 1 -47 11 6 10 5 10
-7 2 -18 -15 -91 -12 -97 4 -3 11 10 17 31 13 5 -1 6 2 3 7 -2 4 4 13 14 19
15 10 19 9 23 -8 3 -10 11 -19 19 -19 10 0 9 3 -2 10 -13 9 -11 14 13 36 19
16 36 23 50 19 12 -2 16 -2 8 1 -15 7 62 59 103 70 14 3 24 10 21 14 -7 12 28
22 51 14 14 -4 15 -3 5 4 -9 7 -10 12 -2 16 6 4 11 5 11 3 0 -2 16 11 36 30
29 27 39 32 46 21 7 -9 8 -8 4 6 -5 14 -2 17 9 12 9 -3 13 -2 10 3 -3 5 -1 12
5 16 5 3 10 2 10 -3 0 -6 7 -12 15 -16 13 -4 13 -2 5 14 -12 23 6 39 23 20 9
-10 8 -12 -5 -7 -24 8 -23 0 1 -13 20 -10 24 2 8 26 -4 7 4 19 19 29 15 9 24
12 20 7 -3 -6 -1 -14 5 -18 7 -4 9 -3 6 3 -8 13 20 53 38 53 7 0 37 22 66 49
36 34 59 48 75 46 14 -1 21 2 17 8 -4 6 0 8 10 4 11 -4 14 -2 11 7 -3 8 12 28
33 45 21 18 29 29 18 25 -18 -6 -17 -4 4 19 27 30 36 34 28 14 -3 -8 1 -14 8
-14 8 0 11 7 7 15 -4 11 -2 13 9 7 12 -7 12 -6 1 7 -10 12 -10 18 2 28 9 6 19
9 24 6 6 -3 10 0 9 7 -1 39 3 49 17 38 11 -9 12 -6 8 15 -3 19 -1 25 6 20 8
-5 10 -2 6 8 -4 10 -1 16 10 16 10 0 13 5 9 17 -4 11 -3 14 5 9 7 -4 12 -1 12
7 0 22 26 41 33 23 3 -7 4 -20 3 -27 -5 -25 -29 -68 -35 -64 -4 2 -7 -7 -7
-21 0 -13 1 -24 3 -24 6 0 52 98 64 139 10 35 14 40 21 25 4 -12 6 -3 3 21 -4
29 -3 34 4 20 7 -16 9 -12 8 20 0 22 4 105 8 185 7 137 3 181 -10 95 -8 -57
-8 -58 0 -80 5 -14 4 -16 -3 -7 -6 9 -8 -6 -6 -45 1 -41 0 -52 -7 -38 -7 15
-7 12 -3 -13 4 -21 1 -39 -8 -49 -9 -12 -9 -15 -1 -9 9 5 11 0 7 -21 -3 -15
-6 -35 -8 -44 -3 -26 -26 -48 -42 -42 -8 3 -14 -1 -14 -8 0 -7 -3 -9 -6 -6 -8
8 15 39 25 33 3 -2 7 6 7 17 2 26 9 70 24 147 10 51 16 1607 6 1617 -2 2 -6
-11 -9 -29z m-86 -1972 c16 10 9 -7 -17 -42 -15 -19 -29 -32 -32 -30 -2 3 5
17 16 31 12 15 20 32 18 38 -1 7 -1 9 1 4 3 -4 9 -5 14 -1z m-177 -97 c-16
-17 -38 -35 -49 -41 -11 -6 0 8 25 30 53 49 65 54 24 11z m-399 -428 c5 -9
-74 -71 -91 -71 -4 0 3 11 16 25 12 13 27 22 31 19 5 -2 14 4 21 16 15 23 15
23 23 11z"/>
<path d="M2768 4858 c-38 -12 -68 -26 -68 -33 0 -16 147 23 154 41 7 18 -4 17
-86 -8z"/>
<path d="M3210 4868 c0 -9 21 -21 58 -31 31 -9 65 -19 75 -22 11 -5 17 -2 17
8 0 9 -22 21 -62 32 -34 9 -68 19 -75 22 -7 3 -13 -1 -13 -9z"/>
<path d="M3178 4283 c0 -318 -1 -585 0 -593 1 -8 2 -111 2 -227 1 -133 5 -213
11 -213 6 0 7 -5 4 -11 -4 -5 1 -26 10 -45 9 -19 13 -39 10 -44 -4 -6 4 -30
18 -53 13 -23 28 -53 32 -65 6 -21 5 -23 -13 -13 -11 6 -23 7 -28 3 -5 -4 -2
1 5 11 8 9 11 20 7 24 -3 3 -6 1 -6 -7 0 -9 -3 -10 -14 -1 -17 15 -26 69 -12
75 6 2 3 5 -8 5 -16 1 -18 7 -13 36 3 20 2 33 -2 31 -4 -3 -9 19 -10 49 -1 30
-9 71 -17 90 -10 25 -14 81 -15 207 -1 95 -5 256 -9 358 -6 144 -7 108 -4
-165 2 -254 8 -383 20 -470 9 -66 17 -130 18 -142 0 -11 5 -19 10 -16 5 4 6
-6 2 -21 -8 -33 50 -160 115 -253 40 -55 181 -211 186 -205 2 1 19 -13 38 -32
41 -40 240 -198 251 -200 5 0 20 -12 34 -25 14 -13 34 -27 45 -32 11 -5 40
-23 65 -39 119 -78 116 -77 333 -82 158 -3 191 -1 165 8 -50 17 -293 140 -388
197 -147 87 -199 120 -313 199 -61 42 -114 74 -117 72 -3 -3 3 -10 13 -15 9
-6 17 -17 17 -25 0 -8 4 -13 8 -10 5 3 18 -4 30 -14 12 -11 26 -20 32 -20 6 0
8 -4 5 -10 -5 -9 8 -14 19 -7 8 5 45 -35 42 -46 -2 -7 -1 -9 1 -4 3 4 11 7 19
7 9 0 12 -5 8 -12 -4 -6 -3 -8 3 -5 11 7 56 -30 49 -42 -3 -4 5 -8 16 -8 20
-2 20 -1 2 13 -28 23 5 4 50 -28 21 -15 35 -28 30 -28 -13 -1 44 -31 67 -35
10 -2 42 -19 71 -38 29 -19 63 -38 76 -42 12 -3 22 -11 22 -16 0 -5 5 -9 11
-9 7 0 17 -7 23 -15 6 -8 23 -16 38 -19 56 -10 57 -21 2 -22 -38 -1 -51 2 -42
8 9 7 7 7 -7 2 -11 -4 -45 -9 -75 -12 -46 -3 -60 1 -88 21 -31 23 -32 26 -15
36 10 6 13 11 8 11 -6 0 -16 -5 -22 -11 -8 -8 -17 -5 -32 10 -12 12 -25 21
-31 21 -5 0 -25 16 -44 36 -26 27 -39 34 -51 27 -15 -9 -15 -11 0 -23 8 -7 19
-10 22 -6 4 4 1 12 -7 17 -13 9 -13 10 0 6 8 -2 14 -12 14 -21 -1 -10 24 -33
67 -62 38 -24 69 -47 69 -50 0 -5 -102 59 -139 87 -13 10 -28 16 -35 12 -6 -3
-8 -3 -4 1 4 5 -39 42 -95 84 -127 93 -235 184 -236 196 -1 5 9 0 22 -12 29
-27 41 -28 27 -2 -6 11 -17 20 -25 20 -8 0 -14 5 -13 11 2 6 -6 16 -16 22 -42
25 -59 46 -49 59 5 7 9 25 8 40 -1 26 0 25 52 -19 83 -71 71 -45 -16 34 -131
120 -213 241 -262 388 l-24 70 -2 795 c-1 906 0 820 -13 820 -7 0 -11 -200
-12 -577z m98 -1381 c23 -35 45 -59 48 -54 3 6 14 9 24 8 9 -2 20 1 23 6 3 4
16 -4 30 -19 18 -20 19 -23 4 -13 -18 14 -19 14 -7 -2 8 -10 20 -14 29 -11 13
5 15 2 11 -15 -4 -12 -1 -22 4 -22 6 0 5 -6 -2 -15 -9 -11 -9 -15 -1 -15 7 0
9 -4 6 -10 -4 -6 -11 -5 -19 3 -8 6 -12 15 -10 19 2 4 -1 10 -7 14 -8 4 -9 3
-5 -4 4 -7 3 -12 -2 -12 -17 0 -22 13 -9 28 10 13 9 14 -2 7 -11 -6 -13 -4 -8
8 3 9 2 19 -4 22 -5 4 -9 3 -8 -2 4 -22 -3 -23 -20 -2 -11 13 -22 21 -26 18
-8 -9 155 -180 165 -174 5 3 11 1 15 -4 3 -6 -5 -15 -17 -22 -13 -6 -20 -8
-16 -4 4 4 -24 41 -62 82 -39 40 -91 101 -116 135 -46 63 -114 194 -114 219 0
8 12 -13 27 -46 15 -33 46 -88 69 -123z m-20 83 c-1 -27 -10 -21 -21 12 -5 18
-3 22 8 17 8 -3 14 -16 13 -29z m34 8 c0 -10 12 -29 25 -42 14 -13 25 -28 25
-35 0 -6 -5 -4 -11 4 -9 13 -10 13 -6 0 2 -8 12 -14 21 -12 20 4 34 -27 16
-38 -13 -8 -48 -5 -57 4 -2 2 -5 13 -6 24 0 11 -4 19 -8 16 -18 -11 -29 36
-20 89 2 15 21 6 21 -10z"/>
<path d="M3316 2887 c3 -10 9 -15 12 -12 3 3 0 11 -7 18 -10 9 -11 8 -5 -6z"/>
<path d="M2577 4432 l-117 -117 0 -507 c0 -337 -4 -525 -11 -560 -37 -175
-176 -297 -559 -496 -314 -162 -512 -233 -700 -248 -68 -6 -80 -10 -80 -25 0
-10 -10 -28 -23 -41 -12 -13 -16 -17 -9 -8 21 29 23 96 2 115 -11 10 -25 15
-32 12 -9 -4 -7 -6 4 -6 9 -1 20 -6 24 -12 4 -8 -1 -9 -17 -4 -17 4 -20 3 -10
-3 9 -7 10 -12 2 -16 -6 -4 -9 -12 -6 -17 9 -13 -9 -11 -23 3 -9 9 -15 9 -25
-1 -10 -11 -9 -12 1 -7 7 4 19 2 27 -4 8 -6 18 -9 24 -6 15 10 22 -24 8 -43
-15 -21 -62 -22 -62 -1 -1 8 -6 14 -11 13 -6 -1 -10 11 -10 28 0 16 2 29 6 29
3 0 15 7 26 16 18 15 18 15 -6 10 -24 -5 -24 -4 -6 9 11 8 15 15 9 15 -14 0
-34 -25 -26 -33 3 -4 -1 -7 -9 -7 -9 0 -19 -11 -22 -24 -7 -30 10 -80 24 -71
6 4 9 1 8 -7 -2 -7 5 -12 14 -12 10 1 15 -3 11 -9 -13 -22 72 2 92 27 19 23
27 24 165 29 159 5 273 26 435 78 308 98 701 315 847 467 142 147 148 173 147
626 -1 345 -14 926 -17 793 -1 -38 -7 -78 -13 -89 -6 -11 -7 -18 -1 -14 8 5 7
-707 -2 -911 -1 -40 1 -74 5 -75 11 -4 -8 -96 -31 -142 -11 -23 -44 -71 -75
-108 -30 -36 -52 -68 -48 -71 5 -2 2 -2 -6 0 -7 2 -28 -10 -47 -27 -154 -135
-792 -473 -858 -455 -17 5 -18 4 -6 -4 13 -9 13 -11 -2 -11 -9 0 -25 -3 -35
-6 -17 -6 -17 -6 1 8 15 12 16 17 6 23 -9 5 -11 4 -6 -3 4 -7 1 -12 -7 -12
-12 0 -27 19 -27 35 0 2 14 8 31 14 24 8 36 8 48 -1 9 -7 13 -9 9 -4 -9 10 19
39 41 43 8 1 19 -3 24 -10 6 -8 7 -6 3 5 -6 19 26 34 46 22 8 -5 7 0 -2 11
-14 17 -13 17 8 11 16 -5 29 -2 42 9 10 9 24 14 30 10 9 -6 9 -10 -1 -17 -10
-6 -6 -7 11 -2 22 6 23 5 11 -9 -10 -13 -18 -14 -35 -6 -20 10 -20 9 -2 -5 18
-14 30 -10 157 57 77 40 134 76 129 81 -5 5 -18 -1 -31 -13 -25 -23 -35 -26
-44 -11 -3 6 -14 10 -23 9 -15 0 -14 -1 2 -8 17 -7 17 -8 2 -24 -10 -9 -23
-17 -29 -17 -7 0 -28 -10 -47 -22 -19 -12 -43 -23 -52 -25 -19 -3 -20 16 -3
30 6 5 4 7 -5 4 -8 -2 -14 -10 -12 -16 3 -16 -13 -14 -28 4 -10 12 -7 15 17
22 15 4 33 6 40 5 6 -1 15 3 19 9 5 8 3 10 -7 4 -11 -6 -12 -5 -2 5 10 11 15
11 30 -1 16 -13 17 -12 4 4 -9 12 -10 17 -2 17 7 0 29 11 49 25 38 26 71 35
39 11 -16 -12 -15 -13 9 -13 14 0 22 2 16 6 -15 9 12 43 30 36 7 -3 22 1 33 9
11 9 15 16 8 16 -6 0 -15 -4 -18 -10 -3 -5 -12 -10 -18 -10 -19 0 49 41 72 43
11 0 19 6 18 11 -3 16 27 13 41 -4 11 -13 11 -12 3 7 -14 28 -14 33 2 27 8 -3
20 2 27 10 7 9 17 13 23 9 6 -3 7 -1 3 5 -4 7 -3 12 2 12 5 0 22 11 37 24 16
14 32 23 37 20 4 -3 5 3 1 13 -3 10 -3 15 1 11 5 -4 19 5 33 20 l25 27 -17
-30 -18 -30 21 19 c12 11 22 27 22 38 0 10 8 27 18 37 34 38 41 49 35 55 -4 3
-1 6 6 6 7 0 11 7 8 14 -4 10 -1 13 9 9 10 -4 12 0 7 13 -3 9 -2 15 3 12 5 -4
10 10 11 30 5 133 8 804 4 927 -5 125 -3 153 9 170 18 23 37 29 54 18 7 -4 4
0 -6 9 -11 10 -14 19 -8 23 5 3 10 3 10 -2 0 -4 8 4 18 20 10 15 22 24 25 20
4 -3 7 0 7 7 0 15 77 89 85 82 3 -3 6 3 7 14 1 10 5 -75 8 -191 l6 -210 2 223
c1 122 1 222 -1 222 -1 0 -55 -53 -120 -118z m0 -1367 c0 -8 -4 -12 -9 -9 -5
3 -6 10 -3 15 9 13 12 11 12 -6z m-812 -405 c-3 -5 -12 -10 -18 -10 -7 0 -6 4
3 10 19 12 23 12 15 0z m-275 -152 c-22 -4 -44 -10 -49 -13 -5 -3 -13 0 -16 5
-5 8 -12 6 -24 -4 -9 -8 -29 -13 -45 -12 -16 2 -43 0 -59 -5 -18 -5 -36 -4
-46 2 -12 8 -11 9 8 3 13 -3 21 -2 18 2 -3 5 5 10 16 10 61 4 85 8 115 21 18
8 44 16 58 17 13 2 27 6 31 10 4 4 13 -1 21 -11 12 -16 9 -19 -28 -25z m-412
-18 c7 -11 9 -20 4 -20 -4 0 -13 9 -20 20 -7 11 -9 20 -4 20 4 0 13 -9 20 -20z"/>
<path d="M3362 4339 l2 -214 7 205 c3 117 6 -73 5 -445 0 -637 1 -651 21 -703
69 -172 222 -300 575 -482 347 -179 594 -250 862 -250 113 0 120 -1 142 -25
64 -70 169 -18 149 74 -7 32 -38 61 -65 61 -8 -1 0 -7 18 -15 17 -8 32 -19 32
-25 0 -7 -7 -5 -16 4 -8 9 -23 16 -32 16 -15 0 -15 -2 -2 -10 14 -9 7 -14 -13
-11 -5 1 -6 -3 -2 -9 4 -6 -3 -8 -17 -6 -13 3 -25 5 -27 5 -3 1 4 8 15 16 22
17 12 20 -17 5 -10 -6 -19 -8 -19 -6 0 3 12 12 28 20 15 8 22 15 16 16 -7 0
-21 -8 -32 -17 -17 -15 -19 -25 -14 -63 4 -25 11 -43 17 -40 6 3 8 10 6 15
-13 36 -13 47 0 43 8 -3 14 -15 14 -28 0 -13 6 -25 13 -27 15 -6 16 13 0 23
-8 5 -6 11 6 20 20 14 49 8 39 -9 -4 -6 -1 -7 7 -2 10 6 9 11 -4 21 -11 7 -13
14 -7 19 6 3 16 -5 23 -20 10 -22 8 -28 -11 -49 -18 -19 -28 -23 -46 -16 -14
5 -26 5 -33 -2 -13 -13 -47 36 -38 57 4 12 -3 15 -37 15 -133 0 -344 58 -542
148 -431 196 -669 359 -740 507 -29 58 -29 63 -38 300 -5 132 -6 380 -3 551
l6 310 -118 111 c-64 61 -120 115 -124 119 -5 4 -7 -89 -6 -207z m54 129 c52
-44 139 -132 136 -140 -1 -5 2 -7 7 -4 5 4 13 1 17 -5 3 -6 6 -234 5 -506 -2
-492 6 -652 32 -636 6 3 7 1 3 -6 -4 -6 5 -28 22 -49 16 -20 27 -43 25 -50 -3
-7 1 -11 8 -10 7 2 13 -4 14 -12 0 -8 6 -15 13 -15 7 0 29 -17 50 -37 54 -53
81 -78 87 -78 3 0 9 0 15 0 5 0 9 -6 7 -12 -1 -7 5 -13 13 -12 8 0 24 -8 35
-19 11 -11 14 -17 8 -13 -8 5 -11 2 -7 -7 3 -8 -2 -20 -11 -27 -10 -8 -15 -9
-15 -1 0 6 -5 11 -11 11 -6 0 -17 6 -25 14 -11 11 -11 16 -1 20 6 3 2 3 -9 1
-22 -6 -96 37 -124 70 -7 8 -17 15 -23 15 -5 0 -20 11 -32 24 -13 14 -26 22
-29 19 -3 -4 -6 -1 -6 5 0 20 5 27 14 24 5 -2 4 4 -3 12 -7 8 -9 21 -5 27 4 8
3 9 -5 5 -6 -4 -10 -15 -9 -24 2 -12 -4 -17 -19 -16 -18 0 -20 -2 -12 -13 6
-7 16 -10 23 -6 6 3 8 3 4 -2 -11 -11 12 -36 26 -28 6 3 8 2 3 -2 -7 -8 117
-95 225 -158 37 -22 46 -24 41 -11 -5 13 -3 15 7 9 8 -5 11 -4 7 1 -3 6 -2 16
3 24 7 12 16 10 54 -9 25 -12 46 -25 46 -27 0 -3 -5 -2 -12 2 -7 5 -8 3 -4 -5
5 -7 14 -10 21 -7 7 2 18 -1 24 -7 7 -7 16 -13 22 -13 5 -1 14 -2 21 -3 6 0 8
-4 5 -8 -8 -7 52 -38 66 -34 5 1 5 -4 1 -10 -5 -9 -2 -10 9 -6 9 3 17 3 19 -1
6 -14 85 -51 94 -44 4 4 3 0 -3 -8 -10 -13 -8 -16 7 -16 10 0 16 5 13 11 -4 5
3 2 14 -7 11 -10 27 -18 36 -18 9 0 19 -4 22 -10 3 -6 -1 -7 -12 -4 -16 5 -16
4 -2 -5 9 -6 26 -9 38 -6 14 3 19 0 15 -7 -5 -8 -1 -9 10 -5 10 4 15 3 11 -3
-3 -6 0 -11 7 -12 7 0 18 -2 24 -2 6 -1 19 -7 28 -15 9 -7 27 -14 41 -14 14 1
28 -3 31 -8 3 -5 16 -9 30 -9 14 0 23 -4 20 -9 -5 -8 87 -28 107 -23 4 1 7 -3
7 -9 0 -6 8 -8 19 -4 10 3 29 1 42 -4 27 -11 27 -11 -23 -17 -21 -3 -38 -1
-38 3 0 4 -25 9 -55 9 -30 1 -61 7 -68 12 -7 6 -24 9 -38 6 -20 -5 -21 -4 -9
6 13 10 12 11 -5 5 -11 -4 -29 -9 -40 -11 l-20 -4 20 10 c16 9 14 9 -14 5 -79
-12 -518 207 -815 407 -65 45 -206 175 -206 191 0 6 11 0 24 -12 20 -19 28
-21 43 -11 17 11 17 11 -1 5 -12 -3 -28 3 -43 17 -14 13 -28 21 -31 19 -9 -5
-58 85 -68 123 -5 23 -4 27 7 21 12 -7 12 -6 1 7 -9 12 -12 86 -13 304 0 159
-2 425 -5 592 -3 166 -3 302 1 302 3 0 13 -6 21 -12z m69 -1388 c10 -11 16
-20 13 -20 -3 0 -13 9 -23 20 -10 11 -16 20 -13 20 3 0 13 -9 23 -20z m59 -58
c3 -5 -1 -9 -9 -9 -8 0 -12 4 -9 9 3 4 7 8 9 8 2 0 6 -4 9 -8z"/>
<path d="M3524 4340 c0 -13 4 -16 10 -10 7 7 7 13 0 20 -6 6 -10 3 -10 -10z"/>
<path d="M3459 3183 c-13 -16 -12 -17 4 -4 16 13 21 21 13 21 -2 0 -10 -8 -17
-17z"/>
<path d="M3506 3183 c-6 -14 -5 -15 5 -6 7 7 10 15 7 18 -3 3 -9 -2 -12 -12z"/>
<path d="M3466 3148 c3 -4 11 -5 19 -1 21 7 19 12 -4 10 -11 0 -18 -5 -15 -9z"/>
<path d="M3603 3134 c8 -14 -20 -27 -36 -17 -7 4 -6 -1 2 -10 12 -15 10 -18
-14 -27 -23 -9 -25 -13 -15 -25 17 -20 34 -19 26 1 -6 15 -4 15 11 3 16 -13
17 -12 5 3 -11 14 -10 18 5 27 10 6 14 11 8 11 -5 0 -3 5 5 10 11 7 20 4 32
-13 10 -12 18 -17 18 -11 0 6 -12 21 -27 35 -14 13 -23 19 -20 13z"/>
<path d="M3713 3014 c9 -11 14 -24 10 -28 -5 -4 -3 -7 2 -6 23 5 28 -1 11 -13
-16 -12 -16 -14 2 -31 15 -13 22 -14 28 -5 4 7 3 10 -3 6 -6 -4 -17 1 -24 10
-12 14 -12 16 2 11 27 -10 18 20 -15 49 -17 16 -23 19 -13 7z"/>
<path d="M3666 3012 c-3 -5 3 -16 14 -24 14 -13 20 -14 23 -3 9 21 -25 46 -37
27z m29 -12 c3 -6 -1 -7 -9 -4 -18 7 -21 14 -7 14 6 0 13 -4 16 -10z"/>
<path d="M3924 2799 c1 -6 66 -46 145 -89 140 -76 145 -78 167 -62 12 9 20 19
18 21 -2 2 -12 -3 -23 -13 -17 -15 -19 -15 -25 -1 -3 9 -10 14 -15 11 -11 -7
-33 18 -24 27 11 12 25 8 17 -5 -5 -7 -3 -8 5 -3 9 5 10 10 2 18 -7 7 -15 6
-26 -3 -14 -11 -19 -7 -16 13 1 5 -3 6 -9 2 -8 -5 -7 -11 1 -21 7 -8 7 -14 1
-14 -14 0 -33 26 -25 34 4 4 0 4 -10 0 -11 -4 -24 2 -38 17 -11 13 -18 18 -14
12 10 -20 -9 -15 -33 7 -12 11 -25 20 -30 20 -5 0 -15 7 -22 15 -7 9 -19 14
-26 11 -7 -3 -15 -1 -18 5 -2 5 -4 4 -2 -2z"/>
<path d="M4077 2749 c7 -7 15 -10 18 -7 3 3 -2 9 -12 12 -14 6 -15 5 -6 -5z"/>
<path d="M4243 2619 c9 -6 21 -8 26 -5 5 3 12 -1 15 -10 4 -9 13 -14 21 -10 8
3 15 2 15 -3 0 -4 11 -13 25 -19 40 -19 43 -14 7 10 -25 15 -30 23 -20 29 9 6
9 9 1 9 -6 0 -15 -4 -18 -10 -3 -5 -11 -10 -16 -10 -6 0 -7 5 -4 10 3 6 3 10
-2 11 -4 0 -21 2 -38 4 -24 3 -27 2 -12 -6z"/>
<path d="M4402 2587 c10 -8 14 -18 10 -22 -4 -5 -1 -5 6 -1 17 10 15 14 -10
26 -21 10 -21 10 -6 -3z"/>
<path d="M4440 2539 c0 -5 5 -7 10 -4 6 3 10 8 10 11 0 2 -4 4 -10 4 -5 0 -10
-5 -10 -11z"/>
<path d="M4474 2535 c-12 -9 -14 -14 -6 -15 7 0 20 7 28 15 20 19 4 20 -22 0z"/>
<path d="M4640 2506 c0 -2 7 -7 16 -10 8 -3 12 -2 9 4 -6 10 -25 14 -25 6z"/>
<path d="M3111 4514 c0 -11 3 -14 6 -6 3 7 2 16 -1 19 -3 4 -6 -2 -5 -13z"/>
<path d="M2992 4455 c0 -16 2 -22 5 -12 2 9 2 23 0 30 -3 6 -5 -1 -5 -18z"/>
<path d="M2621 4417 c-13 -21 -12 -21 5 -5 10 10 16 20 13 22 -3 3 -11 -5 -18
-17z"/>
<path d="M3101 4304 c0 -11 3 -14 6 -6 3 7 2 16 -1 19 -3 4 -6 -2 -5 -13z"/>
<path d="M3122 4215 c0 -16 2 -22 5 -12 2 9 2 23 0 30 -3 6 -5 -1 -5 -18z"/>
<path d="M3123 4135 c0 -27 2 -38 4 -22 2 15 2 37 0 50 -2 12 -4 0 -4 -28z"/>
<path d="M3092 4140 c0 -14 2 -19 5 -12 2 6 2 18 0 25 -3 6 -5 1 -5 -13z"/>
<path d="M3082 3950 c0 -19 2 -27 5 -17 2 9 2 25 0 35 -3 9 -5 1 -5 -18z"/>
<path d="M2328 3793 c-1 -114 -3 -133 -8 -83 -8 77 -9 64 -16 -190 -5 -192
-16 -250 -45 -245 -11 2 -16 -1 -13 -10 3 -7 -11 -29 -31 -48 -20 -19 -32 -38
-27 -41 15 -9 49 22 92 86 24 35 39 52 35 38 -10 -35 -50 -88 -104 -139 -25
-23 -38 -40 -28 -37 13 4 8 -5 -14 -29 -19 -19 -39 -35 -45 -35 -6 0 -17 -7
-24 -15 -7 -8 -20 -15 -29 -15 -15 0 5 15 49 36 19 10 51 46 46 52 -3 2 -31
-12 -63 -31 -187 -112 -439 -188 -666 -199 -62 -3 -69 -1 -90 23 -12 14 -18
19 -13 11 8 -11 5 -11 -18 -1 -22 11 -29 10 -42 -3 -12 -12 -13 -17 -3 -23 7
-5 10 -4 5 3 -8 13 10 26 24 17 8 -5 7 -12 -2 -23 -11 -15 -11 -15 4 -4 14 11
18 10 27 -5 10 -17 10 -17 11 2 0 17 2 17 10 5 12 -19 13 -43 1 -35 -5 3 -17
-2 -25 -11 -9 -8 -16 -12 -16 -8 0 4 -6 0 -13 -11 -9 -12 -16 -14 -21 -7 -4 6
-13 9 -20 6 -8 -3 -17 -1 -21 5 -3 6 -2 11 4 11 6 0 8 7 4 16 -5 13 -7 13 -14
2 -6 -8 -9 -9 -9 -1 0 23 12 43 23 36 5 -3 7 -1 3 5 -3 6 -1 14 5 18 8 4 7 9
-2 15 -23 14 -49 -20 -49 -63 0 -81 85 -117 139 -59 26 28 28 28 166 34 167 6
282 33 443 102 140 60 241 124 297 188 72 82 81 120 89 352 4 110 9 254 13
321 4 86 2 123 -6 128 -8 5 -11 -33 -13 -141z m-273 -774 c4 -6 1 -10 -6 -8
-28 3 -40 -1 -33 -13 5 -7 3 -8 -5 -4 -7 5 -18 0 -27 -10 -10 -14 -14 -15 -12
-4 2 8 17 23 33 32 36 20 42 21 50 7z m-95 -33 c0 -11 -93 -57 -106 -52 -8 3
-14 2 -14 -3 0 -14 -93 -30 -110 -19 -13 8 -12 9 2 4 15 -5 49 3 98 21 8 4 18
6 22 5 4 -1 26 9 50 22 43 24 58 30 58 22z m-720 -60 c0 -2 -8 -10 -17 -17
-16 -13 -17 -12 -4 4 13 16 21 21 21 13z m437 -32 c-3 -3 -12 -4 -19 -1 -8 3
-5 6 6 6 11 1 17 -2 13 -5z m-336 -67 c-10 -9 -11 -8 -5 6 3 10 9 15 12 12 3
-3 0 -11 -7 -18z"/>
<path d="M3716 3932 c-10 -16 -5 -343 5 -337 4 3 8 -64 8 -148 1 -85 6 -168
11 -186 33 -117 150 -218 351 -306 187 -82 303 -110 501 -121 65 -4 121 -11
124 -16 3 -4 10 -5 16 -2 7 4 8 2 4 -4 -3 -6 2 -16 13 -21 56 -31 123 9 123
72 0 48 -24 76 -58 69 -14 -2 -23 -10 -21 -16 3 -6 -3 -20 -12 -30 -16 -19
-16 -19 10 0 15 10 24 23 21 28 -3 5 0 6 6 2 7 -4 12 -13 12 -21 0 -7 5 -15
11 -17 5 -2 7 -11 4 -21 -4 -9 -12 -14 -18 -10 -6 4 -8 0 -4 -11 4 -9 3 -14
-2 -11 -5 3 -13 0 -16 -6 -5 -7 -15 -3 -31 12 -13 12 -21 26 -17 32 3 6 1 7
-5 3 -9 -5 -9 -13 -2 -27 6 -10 8 -19 6 -19 -3 0 -10 9 -16 19 -11 21 -3 54
10 46 5 -3 12 0 16 6 4 8 3 9 -4 5 -19 -11 -14 5 6 21 16 14 16 14 -1 9 -11
-3 -16 -2 -12 4 3 6 14 10 23 11 10 0 12 3 5 5 -16 7 -55 -15 -48 -27 4 -5 2
-9 -3 -9 -6 0 -9 -18 -8 -39 0 -22 -2 -37 -6 -34 -5 2 -8 13 -8 23 0 16 -11
19 -67 25 -223 20 -445 75 -586 147 -87 43 -188 111 -226 151 -19 20 -39 33
-45 30 -6 -3 -8 -3 -4 2 4 4 -4 27 -17 50 -34 58 -31 69 3 14 16 -24 60 -72
98 -107 l69 -62 3 302 3 303 -93 87 c-51 48 -93 92 -93 98 0 5 -4 10 -10 9 -5
0 -12 7 -15 17 -5 12 -9 14 -14 6z m32 -55 c17 -18 19 -24 8 -24 -8 0 -13 4
-10 8 2 4 0 10 -4 13 -5 3 -10 -47 -11 -111 -1 -64 -4 -119 -7 -122 -3 -3 -4
54 -3 127 0 73 2 132 3 132 2 0 12 -10 24 -23z m55 -57 c9 -11 17 -28 17 -38
0 -11 3 -13 8 -5 5 8 19 1 43 -22 28 -25 34 -36 25 -45 -8 -8 -7 -10 4 -5 14
5 15 -23 12 -242 -2 -137 -5 -254 -7 -260 -2 -7 -12 -10 -22 -8 -10 3 -4 -1
12 -9 19 -10 24 -15 13 -16 -18 0 -98 74 -98 91 0 6 -5 7 -12 3 -6 -4 -8 -3
-4 4 3 5 -5 24 -20 41 -20 24 -25 40 -23 74 2 23 -1 48 -5 55 -4 7 -4 12 1 12
4 0 6 81 3 181 -3 99 -1 187 3 195 11 20 30 17 50 -6z m141 -739 c3 -5 -1 -11
-9 -14 -9 -4 -12 -1 -8 9 6 16 10 17 17 5z m41 -30 c3 -6 -4 -9 -15 -8 -11 1
-20 5 -20 9 0 11 28 10 35 -1z m40 -31 c4 -6 12 -7 18 -4 8 5 8 2 -1 -7 -10
-11 -15 -10 -29 4 -10 10 -12 17 -6 17 7 0 15 -5 18 -10z m48 -24 c4 -10 1
-13 -8 -9 -8 3 -12 9 -9 14 7 12 11 11 17 -5z m51 -12 c8 -3 12 -12 9 -20 -3
-8 -9 -11 -14 -8 -5 3 -7 10 -4 15 3 5 -1 6 -9 3 -9 -3 -16 -1 -16 5 0 12 11
14 34 5z m41 -23 c3 -5 2 -12 -3 -15 -5 -3 -9 1 -9 9 0 17 3 19 12 6z m110
-50 l20 -13 -20 7 c-11 4 -26 8 -32 8 -14 0 -17 10 -6 20 4 4 9 3 12 -1 3 -5
15 -14 26 -21z m575 -1 c6 -11 8 -20 6 -20 -3 0 -10 9 -16 20 -6 11 -8 20 -6
20 3 0 10 -9 16 -20z m-470 -16 c0 -2 -12 -4 -27 -4 -21 0 -24 3 -14 9 13 8
41 5 41 -5z m95 -14 c24 -7 21 -8 -18 -5 -27 2 -51 6 -54 9 -9 8 35 5 72 -4z"/>
<path d="M2275 3863 c-22 -20 -66 -60 -98 -90 l-57 -53 2 -305 3 -306 34 29
c25 20 31 31 22 36 -7 5 -17 1 -25 -9 -10 -14 -13 32 -13 251 -1 165 3 276 9
287 8 15 7 18 -4 12 -7 -5 0 4 15 18 15 15 31 27 35 27 4 0 27 23 51 50 24 28
47 50 52 50 4 0 10 -19 12 -42 3 -34 4 -30 5 20 1 34 1 62 0 62 -2 0 -21 -17
-43 -37z"/>
<path d="M2381 3344 c0 -11 3 -14 6 -6 3 7 2 16 -1 19 -3 4 -6 -2 -5 -13z"/>
<path d="M2186 3223 c-6 -14 -5 -15 5 -6 7 7 10 15 7 18 -3 3 -9 -2 -12 -12z"/>
<path d="M2156 3193 c-6 -14 -5 -15 5 -6 7 7 10 15 7 18 -3 3 -9 -2 -12 -12z"/>
<path d="M2587 3163 c3 -7 6 -13 8 -13 2 0 5 6 8 13 3 8 -1 14 -8 14 -7 0 -11
-6 -8 -14z"/>
<path d="M2487 3113 c-2 -5 -3 -23 -1 -40 2 -30 -4 -38 -28 -34 -5 0 -7 -2 -7
-6 4 -23 -3 -31 -23 -27 -21 4 -22 4 -3 -5 12 -6 14 -10 6 -10 -8 -1 -29 -12
-47 -26 -21 -16 -39 -22 -50 -18 -10 4 -15 2 -11 -3 8 -13 -1 -24 -42 -53 -24
-17 -36 -21 -39 -12 -2 7 -13 0 -26 -18 -13 -17 -27 -27 -31 -23 -5 4 -5 1 -1
-6 8 -14 21 -8 103 46 29 19 50 39 46 45 -4 6 0 8 10 4 10 -4 28 5 47 23 17
16 32 28 33 27 2 -1 23 15 49 36 52 43 108 110 83 101 -8 -3 -15 -9 -15 -13 0
-4 -10 -7 -22 -6 -13 2 -22 8 -20 14 2 12 -5 15 -11 4z m33 -38 c-7 -8 -17
-15 -22 -15 -11 0 14 29 26 30 5 0 3 -7 -4 -15z"/>
<path d="M2816 3034 c-4 -9 -4 -19 -1 -22 2 -3 7 3 11 12 4 9 4 19 1 22 -2 3
-7 -3 -11 -12z"/>
<path d="M3419 2943 c-13 -16 -12 -17 4 -4 9 7 17 15 17 17 0 8 -8 3 -21 -13z"/>
<path d="M2134 2799 c-19 -22 -19 -22 1 -11 11 6 27 16 35 22 13 8 13 10 -1
10 -9 0 -24 -10 -35 -21z"/>
<path d="M2079 2791 c11 -7 11 -9 0 -13 -8 -3 -9 -7 -3 -11 5 -3 16 -1 24 4
13 8 13 10 0 19 -8 5 -19 10 -25 10 -5 0 -4 -4 4 -9z"/>
<path d="M2035 2780 c-3 -6 1 -7 9 -4 18 7 21 14 7 14 -6 0 -13 -4 -16 -10z"/>
<path d="M2615 2769 c-4 -6 -5 -12 -2 -15 2 -3 7 2 10 11 7 17 1 20 -8 4z"/>
<path d="M3155 2760 c3 -5 8 -10 11 -10 2 0 4 5 4 10 0 6 -5 10 -11 10 -5 0
-7 -4 -4 -10z"/>
<path d="M3473 2745 c0 -8 4 -12 9 -9 5 3 6 10 3 15 -9 13 -12 11 -12 -6z"/>
<path d="M3500 2731 c0 -6 4 -13 10 -16 6 -3 7 1 4 9 -7 18 -14 21 -14 7z"/>
<path d="M2550 2716 c0 -2 8 -10 18 -17 15 -13 16 -12 3 4 -13 16 -21 21 -21
13z"/>
<path d="M1869 2683 c-13 -17 -13 -17 6 -3 11 8 22 16 24 17 2 2 0 3 -6 3 -6
0 -17 -8 -24 -17z"/>
<path d="M2665 2660 c-3 -6 1 -7 9 -4 18 7 21 14 7 14 -6 0 -13 -4 -16 -10z"/>
<path d="M2452 2634 c-7 -8 -8 -14 -3 -14 10 0 25 19 20 25 -2 1 -10 -3 -17
-11z"/>
<path d="M2540 2635 c-7 -9 -20 -13 -29 -10 -8 3 -13 3 -10 0 5 -5 -57 -75
-66 -75 -2 0 -5 6 -8 13 -2 6 -3 4 -2 -5 2 -10 -1 -21 -6 -24 -5 -3 -9 0 -9 5
0 6 -5 11 -11 11 -5 0 -8 -4 -5 -9 3 -5 -1 -12 -9 -15 -8 -3 -14 -11 -13 -18
4 -15 -42 -18 -62 -4 -13 10 -13 9 -1 -6 7 -10 17 -15 22 -12 5 3 9 1 9 -4 0
-17 -13 -21 -33 -11 -12 7 -17 7 -13 1 8 -13 -3 -44 -13 -37 -4 2 -8 -2 -8
-10 0 -9 15 -3 45 18 54 39 242 196 242 202 0 9 -8 5 -20 -10z m-135 -115 c-3
-5 -12 -10 -18 -10 -7 0 -6 4 3 10 19 12 23 12 15 0z"/>
<path d="M3564 2613 c0 -26 46 -69 179 -167 46 -34 83 -54 88 -49 5 5 -6 16
-26 27 -19 11 -35 24 -35 29 0 6 8 3 18 -5 25 -22 46 -33 38 -20 -3 5 -3 12 1
15 5 2 3 3 -4 1 -6 -1 -19 3 -29 11 -10 7 -24 11 -31 8 -7 -3 -32 9 -55 26
-23 17 -36 31 -29 31 7 0 9 5 6 10 -4 6 -11 7 -17 4 -8 -5 -9 -1 -4 12 6 15 5
17 -5 7 -15 -15 -33 -18 -25 -5 3 5 -6 15 -20 23 -16 8 -24 19 -21 30 4 13 0
16 -12 11 -13 -5 -14 -3 -4 9 10 13 10 16 0 16 -7 0 -13 -11 -13 -24z"/>
<path d="M1735 2594 l-30 -26 33 18 c17 10 32 22 32 26 0 11 -1 10 -35 -18z"/>
<path d="M1650 2576 c0 -2 9 -6 20 -9 11 -3 20 -1 20 4 0 5 -9 9 -20 9 -11 0
-20 -2 -20 -4z"/>
<path d="M2780 2576 c0 -2 8 -10 18 -17 15 -13 16 -12 3 4 -13 16 -21 21 -21
13z"/>
<path d="M3706 2555 c-11 -8 -15 -15 -9 -15 6 0 16 7 23 15 16 19 11 19 -14 0z"/>
<path d="M1630 2549 c0 -5 5 -7 10 -4 6 3 10 8 10 11 0 2 -4 4 -10 4 -5 0 -10
-5 -10 -11z"/>
<path d="M2346 2524 c-5 -14 -4 -15 9 -4 17 14 19 20 6 20 -5 0 -12 -7 -15
-16z"/>
<path d="M2275 2510 c-3 -5 -3 -10 1 -10 3 0 -4 -9 -17 -21 l-24 -21 24 16
c14 9 26 22 27 31 3 17 -2 19 -11 5z"/>
<path d="M3740 2512 c0 -6 5 -14 10 -17 6 -4 7 -11 4 -17 -4 -7 -2 -8 5 -4 9
6 9 12 -1 24 -7 10 -14 19 -15 21 -2 2 -3 -1 -3 -7z"/>
<path d="M1005 2469 c-5 -8 -5 -11 0 -7 4 4 13 0 20 -9 10 -13 13 -14 20 -2 5
8 5 11 0 7 -4 -4 -13 0 -20 9 -10 13 -13 14 -20 2z"/>
<path d="M5053 2443 c0 -9 4 -10 14 -2 7 6 13 12 13 14 0 1 -6 2 -13 2 -8 0
-14 -6 -14 -14z"/>
<path d="M2309 2368 c-5 -18 -6 -38 -1 -34 7 8 12 36 6 36 -2 0 -4 -1 -5 -2z"/>
<path d="M3455 2340 c3 -5 11 -10 16 -10 6 0 7 5 4 10 -3 6 -11 10 -16 10 -6
0 -7 -4 -4 -10z"/>
<path d="M2060 2296 c0 -2 7 -6 15 -10 8 -3 15 -1 15 4 0 6 -7 10 -15 10 -8 0
-15 -2 -15 -4z"/>
<path d="M4040 2290 c-9 -6 -10 -10 -3 -10 6 0 15 5 18 10 8 12 4 12 -15 0z"/>
<path d="M4050 2266 c0 -2 7 -7 16 -10 8 -3 12 -2 9 4 -6 10 -25 14 -25 6z"/>
</g>
<g fill="#FFFFFF" stroke="none">
<path d="M840 1795 l0 -290 300 0 300 0 0 53 0 52 -240 0 -240 0 -2 237 -3
236 -58 1 -57 1 0 -290z m98 246 c3 -8 1 -11 -4 -8 -5 3 -9 -90 -9 -214 0
-121 2 -214 4 -209 1 6 9 3 16 -7 14 -18 25 -19 428 -23 30 0 37 -4 37 -19 0
-11 -8 -22 -17 -25 -34 -10 -514 -3 -521 8 -8 13 -13 472 -5 499 3 13 13 17
36 15 17 -2 33 -9 35 -17z"/>
<path d="M1877 2080 c-132 -4 -150 -7 -163 -24 -11 -16 -14 -69 -15 -255 -1
-130 0 -243 1 -251 5 -38 17 -39 335 -40 l310 -1 3 50 3 51 -265 0 -266 0 0
65 0 65 225 0 225 0 -1 55 -2 55 -223 0 -224 0 0 65 0 66 260 -3 260 -3 0 56
0 55 -157 0 c-87 -1 -225 -3 -306 -6z m421 -29 c8 0 12 -10 10 -23 l-3 -23
-240 0 -240 0 -22 -24 c-15 -17 -19 -30 -14 -45 5 -11 5 -34 1 -52 -12 -53 7
-58 240 -64 197 -5 205 -6 205 -25 0 -19 -8 -20 -200 -23 -110 -1 -207 -5
-215 -9 -8 -3 -17 -6 -20 -5 -3 0 -7 -11 -8 -25 -1 -14 -8 -33 -15 -41 -9 -13
-9 -14 1 -8 9 5 12 -4 12 -33 0 -63 15 -67 285 -70 224 -2 251 -6 242 -34 -2
-7 -481 -13 -572 -8 -14 1 -20 9 -21 25 -1 18 2 23 15 20 13 -5 13 -4 -1 6
-16 10 -18 32 -17 220 1 137 4 212 11 217 6 3 8 1 4 -5 -3 -6 -2 -13 3 -16 5
-4 8 5 6 19 -1 14 0 24 2 21 2 -2 15 -1 29 3 20 5 477 7 522 2z"/>
<path d="M2948 2073 c-18 -22 -340 -565 -336 -567 2 -1 33 0 70 2 l67 4 31 54
31 54 204 0 204 0 31 -54 31 -54 69 -4 c39 -2 70 0 70 4 0 4 -26 49 -58 100
-32 51 -111 180 -176 286 l-118 192 -52 0 c-38 0 -57 -5 -68 -17z m100 -19
c15 -4 21 -12 18 -21 -3 -8 -2 -11 3 -8 9 5 25 -12 26 -26 0 -3 17 -32 37 -65
24 -37 36 -67 33 -81 -2 -13 0 -21 6 -18 5 4 7 12 3 18 -3 7 3 1 14 -12 11
-14 18 -30 16 -36 -3 -6 3 -19 11 -30 15 -19 16 -19 5 5 -11 23 -9 22 14 -5
14 -16 23 -36 21 -43 -3 -8 0 -10 7 -6 8 5 9 2 5 -9 -4 -10 -2 -17 5 -17 7 0
7 -4 -1 -14 -10 -12 -8 -13 9 -9 16 4 19 2 14 -11 -3 -9 -14 -15 -23 -14 -10
2 -15 -3 -15 -14 2 -24 -3 -23 -32 10 -14 15 -23 21 -19 15 7 -15 -51 -18
-253 -15 -102 2 -129 -1 -153 -15 -16 -10 -29 -21 -29 -26 0 -12 -26 -37 -32
-31 -3 2 -4 -6 -3 -18 2 -20 -2 -23 -36 -23 -22 0 -39 1 -39 2 0 13 14 32 21
27 5 -3 6 1 4 8 -3 8 2 22 11 33 8 11 12 14 8 6 -5 -9 -3 -12 5 -7 6 4 10 10
7 14 -6 11 37 95 52 100 6 2 12 -1 12 -7 0 -6 -5 -10 -11 -8 -6 1 -14 -5 -16
-13 -4 -13 -3 -13 6 0 6 8 11 11 11 5 0 -5 5 -4 12 3 8 8 8 15 0 25 -10 11 -8
20 8 40 11 14 20 30 20 37 0 6 4 8 10 5 6 -3 7 1 4 9 -7 19 12 22 20 4 3 -7 3
-1 0 13 -3 15 -1 30 6 34 6 4 15 18 21 32 5 13 14 21 19 18 6 -4 7 -11 4 -17
-4 -7 -2 -8 4 -4 9 5 9 13 2 27 -12 22 -1 25 20 7 12 -11 12 -10 1 4 -14 18
-6 62 10 53 5 -3 6 1 3 9 -4 10 -1 16 7 16 7 0 9 3 6 6 -10 11 34 44 57 44 12
0 31 -3 44 -6z m246 -412 c5 10 7 10 12 1 3 -7 5 -15 5 -18 0 -2 11 -16 24
-29 40 -40 29 -74 -20 -62 -29 7 -46 36 -51 84 -3 27 -1 32 10 22 11 -8 16 -8
20 2z"/>
<path d="M2996 1992 c-4 -7 -4 -12 0 -12 4 0 -1 -9 -11 -20 -12 -14 -21 -17
-25 -9 -5 7 -9 5 -13 -6 -4 -9 -3 -13 3 -10 13 8 13 2 -2 -30 -6 -14 -17 -24
-24 -21 -9 3 -11 -1 -7 -11 4 -10 2 -14 -5 -9 -6 3 -14 1 -18 -5 -4 -8 -3 -9
4 -5 16 10 15 -7 0 -23 -11 -11 -10 -12 2 -5 8 4 0 -10 -17 -33 -34 -42 -41
-67 -23 -78 6 -4 8 -10 6 -14 -3 -4 8 -7 24 -6 17 1 30 -3 30 -9 0 -7 3 -8 8
-1 10 15 188 20 197 5 5 -8 11 -7 22 2 9 7 18 12 20 11 1 -2 2 -2 1 0 -1 1 4
12 10 24 9 16 9 24 0 29 -7 5 -8 3 -3 -6 5 -9 4 -11 -3 -6 -7 4 -12 12 -12 18
0 6 -8 20 -17 30 -15 17 -15 22 -3 41 12 19 11 21 -2 9 -13 -10 -18 -9 -28 3
-11 13 -10 14 6 8 16 -6 17 -5 4 9 -8 9 -19 13 -24 10 -5 -3 -7 2 -3 10 7 21
-86 127 -97 110z m86 -270 c-40 -2 -104 -2 -141 0 l-68 3 71 121 70 120 71
-120 70 -121 -73 -3z"/>
<path d="M2920 1960 c0 -5 5 -10 11 -10 5 0 7 5 4 10 -3 6 -8 10 -11 10 -2 0
-4 -4 -4 -10z"/>
<path d="M2857 1843 c3 -7 6 -13 8 -13 2 0 5 6 8 13 3 8 -1 14 -8 14 -7 0 -11
-6 -8 -14z"/>
<path d="M2806 1762 c-3 -5 1 -9 9 -9 8 0 12 4 9 9 -3 4 -7 8 -9 8 -2 0 -6 -4
-9 -8z"/>
<path d="M2824 1694 c-10 -8 -13 -13 -6 -9 7 4 21 1 30 -7 15 -11 15 -11 5 3
-7 9 -10 19 -6 22 13 13 -4 7 -23 -9z"/>
<path d="M3680 1797 l0 -288 268 3 c254 3 269 4 309 25 93 50 139 149 131 282
-8 133 -74 221 -188 251 -19 5 -144 10 -278 12 l-242 3 0 -288z m487 250 c27
-1 39 -5 33 -12 -5 -6 3 -10 23 -10 20 0 31 -5 30 -12 -2 -7 3 -10 10 -7 7 2
23 -7 35 -20 31 -36 65 -106 51 -106 -8 0 -8 -4 -1 -13 21 -25 14 -196 -8
-182 -4 3 -6 -5 -2 -17 4 -16 2 -19 -8 -13 -9 5 -11 4 -6 -3 4 -7 2 -17 -4
-24 -6 -7 -18 -22 -26 -33 -9 -11 -12 -13 -8 -5 5 8 -9 0 -31 -18 -22 -17 -46
-32 -55 -31 -10 0 -9 3 5 9 14 6 15 9 5 9 -9 1 -22 -5 -28 -11 -10 -10 -75
-14 -242 -15 l-230 -2 0 259 c0 180 3 259 11 262 10 3 332 0 446 -5z"/>
<path d="M3812 1999 c-9 -4 -21 -4 -26 -1 -5 3 -6 0 -2 -6 4 -7 1 -12 -6 -12
-10 0 -13 -35 -13 -160 0 -100 4 -160 10 -160 7 0 7 -3 0 -8 -18 -13 -10 -37
19 -55 27 -17 48 -19 203 -15 95 1 173 7 173 12 0 4 6 6 13 3 14 -5 77 54 96
90 6 12 11 33 11 47 0 14 5 28 10 31 6 3 10 12 10 18 0 9 -2 9 -8 0 -4 -7 -8
12 -8 41 -1 43 -7 62 -33 99 -28 41 -67 81 -46 48 4 -7 -4 -5 -19 4 -14 9 -24
20 -22 24 5 8 -339 8 -362 0z m378 -44 c90 -52 108 -216 32 -298 -37 -39 -78
-47 -259 -47 l-163 0 0 186 0 186 178 -4 c156 -3 181 -5 212 -23z"/>
<path d="M4300 1735 c0 -5 5 -17 10 -25 5 -8 10 -10 10 -5 0 6 -5 17 -10 25
-5 8 -10 11 -10 5z"/>
<path d="M4792 2081 c-109 -11 -162 -59 -170 -154 -6 -72 22 -128 81 -159 38
-21 58 -23 222 -26 201 -4 215 -8 215 -68 0 -61 -15 -64 -278 -64 l-233 0 3
-51 3 -50 255 1 c278 1 302 5 343 61 45 62 38 178 -14 226 -47 45 -80 51 -266
52 -159 1 -175 3 -193 21 -27 27 -25 56 5 86 l25 25 221 -3 220 -3 -3 53 -3
53 -180 4 c-99 1 -213 0 -253 -4z m396 -29 c16 -3 16 -38 -1 -45 -8 -3 -98 -5
-200 -6 -103 0 -197 -3 -209 -6 -31 -8 -62 -53 -60 -85 6 -76 45 -89 285 -93
138 -2 160 -4 171 -19 7 -10 18 -18 24 -18 6 0 16 -9 22 -21 16 -28 21 -89 8
-89 -7 0 -7 -4 0 -12 12 -15 -10 -78 -28 -78 -5 0 -9 -6 -8 -12 2 -7 -4 -13
-12 -13 -8 0 -22 -5 -30 -10 -8 -6 -118 -11 -247 -13 -227 -2 -232 -2 -238 19
-4 11 -4 23 -2 26 3 3 111 6 240 6 219 2 235 3 231 20 -1 10 1 15 7 12 5 -4
12 1 15 9 3 9 9 14 13 11 4 -2 6 6 5 18 -1 12 -3 30 -3 39 -1 9 -15 30 -32 47
l-31 31 -161 0 c-163 0 -244 11 -231 32 4 7 2 8 -4 4 -7 -4 -23 5 -37 21 -19
22 -24 39 -25 81 0 54 11 84 44 115 19 17 35 22 81 29 23 3 393 3 413 0z"/>
<path d="M5155 1580 c-3 -6 1 -7 9 -4 18 7 21 14 7 14 -6 0 -13 -4 -16 -10z"/>
<path d="M3450 1299 c-20 -4 -47 -21 -63 -40 -26 -29 -29 -37 -25 -85 5 -63
26 -90 80 -104 77 -21 147 11 168 76 15 44 1 101 -30 129 -25 22 -84 33 -130
24z m-30 -38 c-5 -11 -15 -23 -21 -27 -6 -3 -3 5 6 20 20 30 30 35 15 7z m127
13 c-3 -3 -12 -4 -19 -1 -8 3 -5 6 6 6 11 1 17 -2 13 -5z m3 -34 c20 -20 26
-63 14 -95 -17 -43 -96 -54 -136 -18 -23 21 -24 90 -1 115 23 26 96 25 123 -2z"/>
<path d="M2440 1186 l0 -116 100 0 c87 0 103 3 120 20 26 26 26 65 -1 84 -20
14 -20 16 -5 31 20 20 21 45 2 71 -12 16 -29 20 -115 22 l-101 4 0 -116z m97
98 c-3 -3 -12 -4 -19 -1 -8 3 -5 6 6 6 11 1 17 -2 13 -5z m-70 -26 c-3 -8 -6
-5 -6 6 -1 11 2 17 5 13 3 -3 4 -12 1 -19z m171 6 c14 -15 14 -16 -3 -13 -10
2 -20 10 -23 17 -5 17 6 15 26 -4z m-23 -29 c0 -17 -8 -21 -63 -25 l-62 -5 0
28 c0 28 0 28 63 25 54 -3 62 -5 62 -23z m-131 -57 c-10 -16 -22 -7 -17 13 4
15 8 17 14 8 4 -7 5 -17 3 -21z m161 -18 c14 -17 15 -21 3 -12 -14 11 -17 10
-20 -10 -3 -21 -9 -23 -71 -28 l-67 -5 0 34 0 33 69 -4 c58 -3 68 -1 63 12 -3
8 -3 13 -1 10 2 -3 13 -16 24 -30z m1 -58 c-17 -16 -18 -16 -5 5 7 12 15 20
18 17 3 -2 -3 -12 -13 -22z"/>
<path d="M2930 1187 c0 -114 0 -115 25 -119 23 -5 25 -2 25 32 l0 38 59 4 c80
6 111 27 111 76 0 67 -15 77 -124 80 l-96 4 0 -115z m50 94 c0 -17 -18 -21
-24 -6 -3 9 0 15 9 15 8 0 15 -4 15 -9z m67 3 c-3 -3 -12 -4 -19 -1 -8 3 -5 6
6 6 11 1 17 -2 13 -5z m87 -40 c7 -19 2 -18 -19 6 -16 17 -16 20 -3 15 9 -4
19 -13 22 -21z m-33 -6 c17 -31 -19 -58 -77 -58 l-44 0 0 40 0 40 55 0 c46 0
56 -3 66 -22z m-127 -78 c-6 -5 -24 21 -24 34 0 6 6 1 14 -10 8 -10 12 -21 10
-24z"/>
<path d="M2680 1196 c0 -2 8 -10 18 -17 15 -13 16 -12 3 4 -13 16 -21 21 -21
13z"/>
<path d="M841 1186 c9 -9 1339 -13 1339 -5 0 5 -286 9 -672 9 -369 0 -669 -2
-667 -4z"/>
<path d="M3874 1181 c5 -8 1346 -3 1355 5 2 2 -303 4 -678 4 -390 0 -680 -4
-677 -9z"/>
<path d="M3160 1156 c0 -2 8 -10 18 -17 15 -13 16 -12 3 4 -13 16 -21 21 -21
13z"/>
<path d="M2656 1048 c3 -5 10 -6 15 -3 13 9 11 12 -6 12 -8 0 -12 -4 -9 -9z"/>
<path d="M2700 1050 c-9 -6 -10 -10 -3 -10 6 0 15 5 18 10 8 12 4 12 -15 0z"/>
<path d="M2084 856 c1 -8 5 -18 8 -22 4 -3 5 1 4 10 -1 8 -5 18 -8 22 -4 3 -5
-1 -4 -10z"/>
<path d="M2510 840 c0 -28 -2 -30 -20 -20 -41 22 -88 -28 -70 -74 11 -30 53
-44 75 -26 10 9 15 9 15 1 0 -6 5 -11 10 -11 6 0 10 33 10 80 0 47 -4 80 -10
80 -5 0 -10 -14 -10 -30z m-6 -52 c8 -13 8 -23 0 -35 -16 -26 -51 -28 -64 -4
-25 47 36 83 64 39z"/>
<path d="M3090 790 c0 -47 4 -80 10 -80 6 0 10 17 10 39 0 41 20 67 45 57 10
-4 15 -19 15 -51 0 -25 5 -45 10 -45 6 0 10 22 10 50 0 57 -23 80 -60 60 -18
-10 -20 -8 -20 20 0 16 -4 30 -10 30 -6 0 -10 -33 -10 -80z"/>
<path d="M3265 861 c-3 -5 -2 -12 3 -15 5 -3 9 1 9 9 0 17 -3 19 -12 6z"/>
<path d="M4070 790 c0 -47 4 -80 10 -80 6 0 10 33 10 80 0 47 -4 80 -10 80 -6
0 -10 -33 -10 -80z"/>
<path d="M4160 790 c0 -47 4 -80 10 -80 6 0 10 33 10 80 0 47 -4 80 -10 80 -6
0 -10 -33 -10 -80z"/>
<path d="M1454 828 c8 -18 20 -51 28 -72 7 -22 18 -41 24 -43 5 -2 19 25 30
59 l20 62 19 -58 c11 -32 24 -58 30 -59 5 -1 21 31 36 71 18 48 23 72 15 72
-7 0 -21 -28 -32 -62 l-20 -62 -19 62 c-10 35 -23 61 -29 59 -5 -2 -19 -30
-30 -63 l-20 -59 -19 63 c-11 37 -24 62 -33 62 -12 0 -12 -5 0 -32z"/>
<path d="M1962 788 l3 -73 48 -3 c28 -2 47 1 47 7 0 6 -18 11 -40 11 l-40 0 0
65 c0 38 -4 65 -10 65 -7 0 -10 -27 -8 -72z"/>
<path d="M2781 834 c-12 -15 -21 -38 -21 -51 0 -29 42 -73 69 -73 58 0 100 55
81 105 -19 51 -95 62 -129 19z m98 -9 c17 -16 18 -60 1 -80 -16 -20 -59 -19
-82 2 -24 21 -23 58 3 84 21 21 51 19 78 -6z"/>
<path d="M3750 785 c0 -43 4 -75 10 -75 6 0 10 16 10 35 l0 36 40 -5 c27 -3
40 -1 40 7 0 9 -13 11 -40 9 -37 -4 -40 -2 -40 22 0 24 3 26 45 26 25 0 45 5
45 10 0 6 -25 10 -55 10 l-55 0 0 -75z"/>
<path d="M2980 836 c0 -8 -6 -17 -12 -19 -10 -4 -10 -6 0 -6 7 -1 12 -16 12
-39 0 -21 5 -43 12 -50 15 -15 48 -16 48 -2 0 6 -9 10 -20 10 -17 0 -20 7 -20
39 0 33 4 40 23 44 l22 4 -22 2 c-13 0 -23 8 -23 16 0 8 -4 15 -10 15 -5 0
-10 -6 -10 -14z"/>
<path d="M1743 820 c-66 -26 -36 -123 33 -106 34 9 30 27 -4 20 -19 -4 -32 -1
-41 10 -12 14 -8 16 33 16 43 0 47 2 44 21 -4 30 -37 49 -65 39z m45 -30 c2
-11 -6 -15 -30 -13 -18 1 -35 2 -37 2 -2 1 2 8 9 16 16 19 54 16 58 -5z"/>
<path d="M2132 814 c-29 -20 -31 -79 -3 -94 28 -14 56 -13 71 5 10 12 7 13
-22 9 -24 -4 -38 -1 -47 10 -12 14 -8 16 32 16 57 0 66 12 33 45 -29 29 -34
30 -64 9z m56 -24 c2 -11 -6 -15 -28 -15 -28 0 -39 13 -23 29 12 12 48 2 51
-14z"/>
<path d="M2293 822 c-35 -5 -27 -20 8 -18 18 0 34 -5 36 -11 3 -9 -6 -13 -25
-13 -37 0 -60 -25 -45 -48 7 -11 25 -17 52 -18 l41 -1 0 41 c0 59 -18 76 -67
68z m45 -69 c-4 -21 -36 -29 -51 -14 -9 9 -8 14 3 21 25 16 52 12 48 -7z"/>
<path d="M3279 817 c-30 -16 -37 -61 -13 -88 17 -19 40 -24 68 -13 28 11 17
21 -20 20 -22 -1 -39 4 -41 12 -3 8 9 12 41 12 50 0 60 15 29 42 -30 25 -38
27 -64 15z m50 -21 c9 -11 5 -15 -24 -18 -23 -3 -35 0 -35 8 0 24 42 31 59 10z"/>
<path d="M3542 819 c-33 -12 -27 -38 13 -55 42 -17 37 -39 -6 -30 -30 6 -40
-8 -13 -18 25 -10 42 -7 58 9 21 21 10 42 -25 50 -36 8 -32 31 5 28 14 -1 26
2 26 6 0 13 -34 19 -58 10z"/>
<path d="M3935 818 c-26 -15 -35 -28 -35 -54 0 -26 30 -54 57 -54 49 0 72 76
31 104 -26 19 -27 19 -53 4z m49 -24 c19 -19 20 -25 3 -48 -19 -26 -61 -18
-65 12 -7 44 32 67 62 36z"/>
<path d="M4272 819 c-48 -18 -44 -93 6 -106 46 -11 82 29 67 73 -12 32 -41 45
-73 33z m48 -23 c20 -25 8 -61 -21 -64 -36 -4 -55 21 -41 53 13 28 43 33 62
11z"/>
<path d="M3410 765 c0 -65 16 -74 22 -12 5 46 1 67 -13 67 -5 0 -9 -25 -9 -55z"/>
<path d="M3445 810 c-3 -5 1 -10 9 -10 8 0 18 5 21 10 3 6 -1 10 -9 10 -8 0
-18 -4 -21 -10z"/>
<path d="M4409 769 c9 -29 23 -55 29 -57 6 -2 16 15 23 37 7 23 15 41 19 41 3
0 11 -17 16 -37 13 -54 28 -50 51 12 15 40 17 55 8 55 -7 0 -16 -16 -19 -35
-10 -49 -21 -51 -35 -5 -6 22 -15 40 -20 40 -9 0 -31 -45 -31 -65 0 -29 -17
-14 -26 22 -5 20 -14 38 -21 40 -9 3 -7 -12 6 -48z"/>
<path d="M4610 786 c0 -2 7 -7 16 -10 8 -3 12 -2 9 4 -6 10 -25 14 -25 6z"/>
<path d="M2592 710 c1 -17 5 -27 9 -23 13 14 14 46 2 50 -7 3 -11 -7 -11 -27z"/>
<path d="M4605 731 c-6 -11 9 -23 19 -14 9 9 7 23 -3 23 -6 0 -12 -4 -16 -9z"/>
</g>
</g>
</svg>
